<svg width="29" height="29" viewBox="0 0 29 29" fill="none" xmlns="http://www.w3.org/2000/svg">
<circle cx="14.5" cy="14.5" r="14.5" fill="#373230"/>
<path fill-rule="evenodd" clip-rule="evenodd" d="M8.62207 14.0549C8.62207 13.699 8.74173 13.4104 8.88934 13.4104H20.7828C20.9304 13.4104 21.0501 13.699 21.0501 14.0549C21.0501 14.4109 20.9304 14.6995 20.7828 14.6995H8.88934C8.74173 14.6995 8.62207 14.4109 8.62207 14.0549Z" fill="#ffffff"/>
<path fill-rule="evenodd" clip-rule="evenodd" d="M14.8561 7.83813C15.1993 7.83813 15.4775 7.96225 15.4775 8.11536L15.4775 20.4517C15.4775 20.6048 15.1993 20.7289 14.8561 20.7289C14.5129 20.7289 14.2347 20.6048 14.2347 20.4517L14.2347 8.11535C14.2347 7.96225 14.5129 7.83813 14.8561 7.83813Z" fill="#ffffff"/>
</svg>
