<?xml version="1.0" encoding="UTF-8"?>
<svg width="1200pt" height="1200pt" version="1.1" viewBox="0 0 1200 1200" xmlns="http://www.w3.org/2000/svg">
 <path d="m967.88 649.12c-18.176-29.742-42.305-55.406-70.875-75.375 50.484-57.16 77.066-131.54 74.25-207.75 0-192-140.25-292.88-332.62-291h-346.88c-29.527 2.1016-57.031 15.762-76.551 38.02-19.516 22.254-29.469 51.309-27.699 80.855v812.25c-1.7695 29.547 8.1836 58.602 27.699 80.855 19.52 22.258 47.023 35.918 76.551 38.02h369.75c205.5 1.5 350.25-96.375 351-302.25 1.8516-60.93-13.625-121.14-44.625-173.62zm-555.38-386.62h197.62c85.125 1.5 142.12 25.875 142.5 113.25-0.75 85.875-58.125 110.62-142.5 111.75h-197.62zm218.62 675h-218.62v-225h218.62c130.12 0 147 60 147 112.5s-16.875 112.5-147 112.5z" fill="#fff"/>
</svg>
