<svg width="30" height="30" viewBox="0 0 30 30" fill="none" xmlns="http://www.w3.org/2000/svg">
<path opacity="0.5" d="M0 15C0 6.71573 6.71573 0 15 0V0C23.2843 0 30 6.71573 30 15V15C30 23.2843 23.2843 30 15 30V30C6.71573 30 0 23.2843 0 15V15Z" fill="#2A2523"/>
<path d="M22.7549 23H7.77778C7.71446 22.9805 7.65601 22.9562 7.58782 22.9403C6.64292 22.7078 6 21.9967 6 21.1443C6 17.1536 6 13.1666 6 9.18326C6 8.04718 7.06788 7 8.18204 7C12.6691 7.02557 17.1574 7.01461 21.6444 7.00609C21.9582 7.00482 22.269 7.06632 22.5587 7.18699C22.8483 7.30765 23.1109 7.48502 23.3309 7.70868C23.6767 8.03866 23.8679 8.45632 24.0286 8.89346V21.5741C24.0079 21.6362 23.986 21.6959 23.9702 21.7616C23.8484 22.2584 23.5988 22.6627 23.1008 22.8661C22.9863 22.9135 22.8706 22.9513 22.7549 23ZM23.0155 18.0076V17.6971C23.0155 14.9391 22.996 12.1811 23.0301 9.42314C23.0387 8.70472 22.2862 8.00335 21.6055 8.007C17.1683 8.03501 12.73 8.02161 8.29163 8.02161C8.12208 8.01403 7.9528 8.04179 7.79456 8.10315C7.63632 8.1645 7.49256 8.2581 7.37244 8.37799C7.25231 8.49789 7.15844 8.64146 7.09679 8.79959C7.03513 8.95771 7.00705 9.12693 7.01431 9.2965C7.01431 12.5436 7.01431 15.7935 7.01431 19.0463C7.01822 19.1109 7.02636 19.1751 7.03866 19.2387L14.1327 14.3059L17.0222 17.439L19.6377 15.2289L23.0155 18.0076ZM13.9793 15.5321C13.9075 15.5772 13.8502 15.6113 13.7942 15.6539C11.7072 17.1065 9.62862 18.5677 7.52572 19.996C7.12755 20.2676 6.96073 20.5428 7.00091 21.0213C7.03501 21.439 7.20548 21.7227 7.57565 21.8651C7.79737 21.9472 8.03209 21.9884 8.26849 21.9869C12.9337 21.9942 17.6014 21.9942 22.2715 21.9869C22.8341 21.9869 23.0107 21.814 23.018 21.2429C23.0253 20.6231 23.0277 20.0033 23.018 19.3848C23.0101 19.2731 22.96 19.1686 22.8779 19.0925C21.8624 18.2402 20.8371 17.4073 19.8204 16.561C19.6986 16.4588 19.6207 16.4539 19.5002 16.561C19.1434 16.8752 18.7781 17.1784 18.4152 17.484L16.926 18.7333L13.9793 15.5321Z" fill="white"/>
<path d="M20.0645 11.6187C20.0623 11.9816 19.9528 12.3357 19.7496 12.6364C19.5465 12.9371 19.2588 13.1709 18.9229 13.3083C18.5871 13.4457 18.218 13.4806 17.8624 13.4086C17.5067 13.3366 17.1803 13.1608 16.9244 12.9035C16.6685 12.6463 16.4945 12.319 16.4243 11.9629C16.3542 11.6069 16.391 11.238 16.5302 10.9029C16.6694 10.5678 16.9047 10.2813 17.2065 10.0798C17.5083 9.87821 17.863 9.77051 18.2258 9.77026C18.4682 9.7701 18.7081 9.81787 18.9319 9.91082C19.1557 10.0038 19.3589 10.1401 19.5298 10.3119C19.7007 10.4837 19.8359 10.6876 19.9277 10.9119C20.0194 11.1361 20.0659 11.3763 20.0645 11.6187ZM19.0478 11.6187C19.0492 11.4562 19.0024 11.2969 18.9134 11.161C18.8243 11.025 18.697 10.9186 18.5474 10.855C18.3978 10.7914 18.2328 10.7736 18.0731 10.8038C17.9135 10.834 17.7663 10.9109 17.6503 11.0247C17.5343 11.1385 17.4546 11.2841 17.4214 11.4431C17.3881 11.6022 17.4027 11.7676 17.4634 11.9183C17.5241 12.0691 17.6281 12.1984 17.7623 12.2901C17.8965 12.3818 18.0548 12.4316 18.2173 12.4333C18.3249 12.4354 18.4318 12.4161 18.532 12.3767C18.6321 12.3372 18.7234 12.2783 18.8006 12.2033C18.8778 12.1284 18.9394 12.0389 18.9818 11.94C19.0242 11.8411 19.0467 11.7348 19.0478 11.6272V11.6187Z" fill="white"/>
</svg>
