<?xml version="1.0" encoding="UTF-8"?>
<svg width="1200pt" height="1200pt" version="1.1" viewBox="0 0 1200 1200" xmlns="http://www.w3.org/2000/svg">
 <path d="m832.31 196.88h-333.38c-10.047 0-19.332 5.3594-24.355 14.062-5.0273 8.7031-5.0273 19.422 0 28.125 5.0234 8.7031 14.309 14.062 24.355 14.062h133.12l-121.31 693.75h-143.06c-10.047 0-19.332 5.3594-24.355 14.062-5.0273 8.7031-5.0273 19.422 0 28.125 5.0234 8.7031 14.309 14.062 24.355 14.062h333.38c10.047 0 19.332-5.3594 24.355-14.062 5.0273-8.7031 5.0273-19.422 0-28.125-5.0234-8.7031-14.309-14.062-24.355-14.062h-133.12l121.31-693.75h143.06c10.047 0 19.332-5.3594 24.355-14.062 5.0273-8.7031 5.0273-19.422 0-28.125-5.0234-8.7031-14.309-14.062-24.355-14.062z" fill="#fff"/>
</svg>
