<svg width="35" height="32" viewBox="0 0 35 32" fill="none" xmlns="http://www.w3.org/2000/svg">
<path d="M0.895577 27.4931L0.895578 4.3182C0.895578 1.99594 2.68377 0.105224 4.88205 0.105224L16.9011 0.105225C17.2596 0.105225 17.6035 0.247653 17.857 0.501178C18.1105 0.754703 18.2529 1.09856 18.2529 1.4571C18.2529 1.81563 18.1105 2.15949 17.857 2.41301C17.6035 2.66654 17.2596 2.80897 16.9011 2.80897L4.88205 2.80897C4.16677 2.80897 3.59932 3.48609 3.59932 4.3182L3.59932 27.4931C3.59932 28.3252 4.17392 29.0024 4.88205 29.0024L16.9011 29.0024C17.0786 29.0024 17.2544 29.0373 17.4184 29.1053C17.5824 29.1732 17.7314 29.2728 17.857 29.3983C17.9825 29.5238 18.0821 29.6729 18.15 29.8369C18.218 30.0009 18.2529 30.1767 18.2529 30.3542C18.2529 30.5318 18.218 30.7075 18.15 30.8716C18.0821 31.0356 17.9825 31.1846 17.857 31.3101C17.7314 31.4357 17.5824 31.5353 17.4184 31.6032C17.2544 31.6711 17.0786 31.7061 16.9011 31.7061L4.88205 31.7061C2.68377 31.7061 0.895577 29.8154 0.895577 27.4931Z" fill="#F4F3F3"/>
<path d="M8.90683 15.7029C8.90683 15.3444 9.04926 15.0006 9.30278 14.747C9.55631 14.4935 9.90016 14.3511 10.2587 14.3511L32.735 14.3511C33.0936 14.3511 33.4374 14.4935 33.691 14.747C33.9445 15.0006 34.0869 15.3444 34.0869 15.7029C34.0869 16.0615 33.9445 16.4053 33.691 16.6589C33.4374 16.9124 33.0936 17.0548 32.735 17.0548L10.2587 17.0548C9.90016 17.0548 9.55631 16.9124 9.30278 16.6589C9.04926 16.4053 8.90683 16.0615 8.90683 15.7029Z" fill="#F4F3F3"/>
<path d="M26.0423 23.6019C26.0421 23.3092 26.1376 23.0246 26.3141 22.7912L31.6453 15.7243L26.3356 9.04839C26.1456 8.76552 26.0694 8.42132 26.1222 8.08468C26.1751 7.74804 26.3532 7.44379 26.6208 7.23283C26.8885 7.02187 27.2259 6.91976 27.5656 6.94694C27.9052 6.97412 28.2221 7.12858 28.4528 7.37941L34.4134 14.8755C34.5998 15.11 34.703 15.3997 34.7069 15.6992C34.7108 15.9987 34.6151 16.2909 34.4349 16.5302L28.4743 24.4316C28.3036 24.6583 28.066 24.8255 27.795 24.9096C27.524 24.9938 27.2334 24.9905 26.9644 24.9003C26.6954 24.8101 26.4616 24.6375 26.2961 24.4071C26.1306 24.1766 26.0418 23.8999 26.0423 23.6162L26.0423 23.6019Z" fill="#F4F3F3"/>
</svg>
