<svg width="46" height="46" viewBox="0 0 46 46" fill="none" xmlns="http://www.w3.org/2000/svg">
<path d="M25.9998 0C27.7103 0 29.1198 1.4095 29.1198 3.12V5.28125C29.7341 5.49656 30.3368 5.73473 30.9235 6.0125L32.451 4.485C33.6605 3.27557 35.6453 3.27557 36.8546 4.485L41.2581 8.88853C42.4675 10.098 42.4675 12.0991 41.2581 13.3085L39.7306 14.836C40.0099 15.4255 40.2618 16.0225 40.4781 16.6398H42.6393C44.3498 16.6398 45.7593 18.0493 45.7593 19.7598V25.9998C45.7593 27.7103 44.3498 29.1198 42.6393 29.1198H40.4618C40.2484 29.7276 40.0052 30.3265 39.7306 30.9073L41.2581 32.4348C42.4675 33.6442 42.4675 35.6453 41.2581 36.8548L36.8546 41.2583C35.6451 42.4677 33.6602 42.4677 32.451 41.2583L30.9235 39.7308C30.337 40.0086 29.7341 40.2467 29.1198 40.4621V42.6396C29.1198 44.3501 27.7103 45.7596 25.9998 45.7596H19.7598C18.0493 45.7596 16.6398 44.3501 16.6398 42.6396V40.4621C16.0303 40.2467 15.433 40.0067 14.8523 39.7308L13.3248 41.2583C12.1153 42.4677 10.1305 42.4677 8.92125 41.2583L4.50125 36.8548C3.29182 35.6453 3.29182 33.6442 4.50125 32.4348L6.045 30.891C5.77027 30.3192 5.51516 29.7258 5.2975 29.1198H3.12C1.4095 29.1198 0 27.7103 0 25.9998V19.7598C0 18.0493 1.4095 16.6398 3.12 16.6398H5.2975C5.51755 16.0262 5.76671 15.4309 6.045 14.8523L4.50125 13.3085C3.29182 12.0991 3.29182 10.098 4.50125 8.88853L8.92125 4.485C10.1307 3.27557 12.1156 3.27557 13.3248 4.485L14.8523 6.0125C15.433 5.73642 16.0303 5.49657 16.6398 5.28125V3.12C16.6398 1.4095 18.0493 0 19.7598 0H25.9998ZM25.9998 2.08H19.7598C19.1656 2.08 18.7198 2.52586 18.7198 3.12V5.98C18.7198 6.41944 18.4082 6.84073 17.9885 6.97125C16.9768 7.28271 16.0086 7.67286 15.096 8.1575C14.7079 8.3635 14.1899 8.2875 13.8773 7.97875L11.8623 5.96375C11.4422 5.54362 10.8036 5.54362 10.3835 5.96375L5.96353 10.3673C5.5434 10.7874 5.5434 11.4097 5.96353 11.8298L7.99478 13.861C8.31606 14.1722 8.39951 14.7011 8.18978 15.096C7.70077 16.0187 7.27827 16.9709 6.97103 17.9723C6.84628 18.3978 6.42326 18.7169 5.97978 18.7198H3.11978C2.52564 18.7198 2.07978 19.1656 2.07978 19.7598V25.9998C2.07978 26.5939 2.52564 27.0398 3.11978 27.0398H5.97978C6.41923 27.0398 6.84051 27.3514 6.97103 27.771C7.27826 28.7724 7.70077 29.741 8.18978 30.6635C8.39189 31.0549 8.30878 31.5735 7.99478 31.8823L5.96353 33.9135C5.5434 34.3337 5.5434 34.9559 5.96353 35.376L10.3835 39.7796C10.8037 40.1997 11.4422 40.1997 11.8623 39.7796L13.8773 37.7646C14.1899 37.4558 14.7079 37.3796 15.096 37.5858C16.0086 38.0705 16.9768 38.4606 17.9885 38.7721C18.4134 38.9041 18.7259 39.3347 18.7198 39.7796V42.6396C18.7198 43.2337 19.1656 43.6796 19.7598 43.6796H25.9998C26.5939 43.6796 27.0398 43.2337 27.0398 42.6396V39.7796C27.0335 39.3347 27.3462 38.9041 27.771 38.7721C28.7902 38.4592 29.7659 38.0711 30.6798 37.5858C31.0679 37.3798 31.5859 37.4558 31.8985 37.7646L33.9135 39.7796C34.3337 40.1997 34.9722 40.1997 35.3923 39.7796L39.7958 35.376C40.2159 34.9559 40.2159 34.3336 39.7958 33.9135L37.7808 31.8985C37.4719 31.5859 37.3961 31.0679 37.6021 30.6798C38.0874 29.7659 38.4755 28.7904 38.7883 27.771C38.9188 27.3514 39.3401 27.0406 39.7796 27.0398H42.6396C43.2337 27.0398 43.6796 26.5939 43.6796 25.9998V19.7598C43.6796 19.1656 43.2337 18.7198 42.6396 18.7198H39.7796C39.3363 18.7145 38.9131 18.3978 38.7883 17.9723C38.4755 16.953 38.0874 15.9937 37.6021 15.0798C37.3883 14.6883 37.4648 14.1596 37.7808 13.8448L39.7958 11.8298C40.2159 11.4097 40.2159 10.7874 39.7958 10.3673L35.3923 5.96375C34.9721 5.54362 34.3336 5.54362 33.9135 5.96375L31.8985 7.97875C31.5859 8.2875 31.0679 8.3635 30.6798 8.1575C29.7661 7.67221 28.7904 7.28407 27.771 6.97125C27.3514 6.84074 27.0406 6.41944 27.0398 5.98V3.12C27.0398 2.52586 26.5939 2.08 25.9998 2.08ZM22.8798 12.48C28.6115 12.48 33.2798 17.1483 33.2798 22.88C33.2798 28.6113 28.6115 33.28 22.8798 33.28C17.1481 33.28 12.4798 28.6113 12.4798 22.88C12.4798 17.1483 17.1481 12.48 22.8798 12.48ZM22.8798 14.56C18.2726 14.56 14.5598 18.2726 14.5598 22.88C14.5598 27.4874 18.2724 31.2 22.8798 31.2C27.4872 31.2 31.1998 27.4874 31.1998 22.88C31.1998 18.2726 27.4872 14.56 22.8798 14.56Z" fill="#F4F3F3"/>
</svg>
