<?xml version="1.0" encoding="UTF-8"?>
<svg width="1200pt" height="1200pt" version="1.1" viewBox="0 0 1200 1200" xmlns="http://www.w3.org/2000/svg">
 <g fill="#fff">
  <path d="m795.6 298.68v330.72c0 58.238-17.602 104.04-52.801 137.4-35.199 33.363-83.562 50.004-145.08 49.922-61.52 0-109.12-16.801-142.8-50.398-33.68-33.602-50.52-79.719-50.52-138.36v-329.28h60v333.48c0 42.641 11.641 75.398 34.922 98.281 23.281 22.879 57.52 34.32 102.72 34.32 43.121 0 76.32-11.48 99.602-34.441 23.281-22.961 34.922-55.879 34.922-98.762l-0.003906-332.88z"/>
  <path d="m373.39 938.42 0.27734-48 452.99 2.6094-0.27734 48z"/>
 </g>
</svg>
